<?xml version="1.0" encoding="UTF-8" standalone="no"?>
<!DOCTYPE svg PUBLIC "-//W3C//DTD SVG 1.1//EN" "http://www.w3.org/Graphics/SVG/1.1/DTD/svg11.dtd">
<svg width="100%" height="100%" viewBox="0 0 315 251" version="1.1" xmlns="http://www.w3.org/2000/svg" xmlns:xlink="http://www.w3.org/1999/xlink" xml:space="preserve" xmlns:serif="http://www.serif.com/" style="fill-rule:evenodd;clip-rule:evenodd;stroke-miterlimit:10;">
    <g transform="matrix(1,0,0,1,-1080,-3337)">
        <g transform="matrix(4.16667,0,0,4.16667,0,0)">
            <g opacity="0.7">
                <g>
                    <clipPath id="_clip1">
                        <rect x="268.277" y="810" width="57.446" height="42"/>
                    </clipPath>
                    <g clip-path="url(#_clip1)">
                        <g>
                            <g>
                                <clipPath id="_clip2">
                                    <rect x="268.25" y="810" width="57.5" height="42" clip-rule="nonzero"/>
                                </clipPath>
                                <g clip-path="url(#_clip2)">
                                    <g transform="matrix(1,0,0,-1,268.277,852)">
                                        <path d="M14.561,30.579L3.436,30.579C2.091,30.579 1,29.488 1,28.143L1,13.857C1,12.512 2.091,11.421 3.436,11.421L14.561,11.421L28.205,1.45C29.732,0.333 31.881,1.424 31.881,3.316L31.881,38.684C31.881,40.576 29.732,41.667 28.205,40.551L14.561,30.579Z" style="fill:none;fill-rule:nonzero;stroke:rgb(137,142,149);stroke-width:2px;"/>
                                    </g>
                                    <g transform="matrix(1,0,0,-1,268.277,851.472)">
                                        <path d="M51.584,3.563C54.663,8.462 56.446,14.258 56.446,20.472C56.446,26.91 54.532,32.9 51.245,37.909" style="fill:none;fill-rule:nonzero;stroke:rgb(137,142,149);stroke-width:2px;stroke-linecap:round;"/>
                                    </g>
                                    <g transform="matrix(1,0,0,-1,268.277,851.456)">
                                        <path d="M45.101,32.82C47.284,29.212 48.541,24.981 48.541,20.456C48.541,16.156 47.406,12.122 45.42,8.636" style="fill:none;fill-rule:nonzero;stroke:rgb(137,142,149);stroke-width:2px;stroke-linecap:round;"/>
                                    </g>
                                    <g transform="matrix(1,0,0,-1,268.277,851.456)">
                                        <path d="M45.421,8.636C47.407,12.122 48.542,16.156 48.542,20.456C48.542,24.981 47.285,29.212 45.102,32.82" style="fill:none;fill-rule:nonzero;stroke:rgb(137,142,149);stroke-width:2px;stroke-linecap:round;"/>
                                    </g>
                                    <g transform="matrix(1,0,0,-1,268.277,851.423)">
                                        <path d="M38.906,27.672C40.013,25.495 40.638,23.032 40.638,20.423C40.638,18.042 40.117,15.782 39.185,13.751" style="fill:none;fill-rule:nonzero;stroke:rgb(137,142,149);stroke-width:2px;stroke-linecap:round;"/>
                                    </g>
                                </g>
                            </g>
                        </g>
                    </g>
                </g>
            </g>
        </g>
    </g>
</svg>
