<?xml version="1.0" encoding="UTF-8" standalone="no"?>
<!DOCTYPE svg PUBLIC "-//W3C//DTD SVG 1.1//EN" "http://www.w3.org/Graphics/SVG/1.1/DTD/svg11.dtd">
<svg width="100%" height="100%" viewBox="0 0 222 393" version="1.1" xmlns="http://www.w3.org/2000/svg" xmlns:xlink="http://www.w3.org/1999/xlink" xml:space="preserve" xmlns:serif="http://www.serif.com/" style="fill-rule:evenodd;clip-rule:evenodd;stroke-linejoin:round;stroke-miterlimit:2;">
    <g transform="matrix(1,0,0,1,-1039,-714)">
        <g transform="matrix(4.16667,0,0,-4.16667,311.886,1122.01)">
            <path d="M204.79,88.115C201.32,88.115 199.711,85.682 199.711,85.682C198.105,82.847 199.135,80.458 200.268,78.962L199.155,77.16L196.101,75.217C193.045,73.274 192.657,71.116 192.657,71.116L188.901,50.234C188.206,46.372 190.051,43.891 190.051,43.891L198.629,29.08L190.783,13.696L192.45,13.028L191.226,7.589C191.192,6.915 191.755,6.35 192.462,6.347L204.589,6.282C204.591,6.282 204.593,6.282 204.595,6.282C205.129,6.282 205.563,6.695 205.563,7.205L205.563,9.197C205.562,9.595 205.294,9.949 204.897,10.074L199.083,11.898L204.863,22.418L212.092,13.642C212.424,13.239 213.036,13.171 213.457,13.49L215.095,14.728C215.423,14.976 215.547,15.396 215.402,15.77L212.41,23.513L214.098,23.182L220.927,44.385C222.299,47.956 218.872,49.121 218.862,49.122L206.762,50.574C207.04,51.225 207.253,51.946 207.354,52.74C207.49,53.818 207.423,55.411 207.245,57.198L216.631,62.256C216.964,62.414 217.342,62.464 217.707,62.397L220.89,61.811C221.112,61.77 221.34,61.85 221.481,62.018L221.902,62.519C222.158,62.825 222.032,63.277 221.651,63.422L218.785,64.506L220.307,65.587L222.356,64.642C222.541,64.556 222.757,64.566 222.933,64.665L223.41,64.934C223.778,65.141 223.813,65.636 223.478,65.889L221.501,67.379C221.093,67.686 220.538,67.751 220.065,67.545L209.902,63.132L211.639,67.739C211.924,68.495 212.556,69.086 213.354,69.344L217.509,70.686C217.781,70.773 217.965,71.017 217.965,71.29C217.965,71.69 217.583,71.991 217.171,71.918L215.461,71.614L216.09,73.622L218.271,73.442C218.588,73.415 218.895,73.554 219.073,73.806L219.234,74.032C219.545,74.471 219.352,75.072 218.835,75.272L217.145,75.922C216.638,76.118 215.645,76.037 215.218,75.712L214.159,74.903C213.531,74.424 212.942,73.899 212.398,73.332L205.719,66.997C205.68,67.199 205.642,67.392 205.606,67.578C205.571,69.061 205.343,70.538 204.919,71.974L204.192,74.436L204.324,74.846C204.539,75.334 205.086,76.103 206.424,76.243L206.456,76.247C206.798,76.241 207.142,76.257 207.481,76.308L208.952,76.533C209.364,76.596 209.674,76.928 209.683,77.325C209.687,77.53 209.68,77.764 209.648,78.002C209.55,78.711 210.039,78.867 209.98,79.314C209.954,79.512 209.912,79.641 209.875,79.722C209.838,79.801 209.863,79.893 209.942,79.935C210.264,80.106 210.969,80.499 211.015,80.671C211.074,80.894 209.991,81.769 209.659,82.345C209.328,82.921 210.039,83.145 210.116,83.405C210.195,83.666 209.135,87.836 205.309,88.097C205.131,88.109 204.958,88.115 204.79,88.115M203.301,41.452L211.755,41.149L207.562,28.919C207.517,30.354 206.928,31.579 206.482,32.649L203.301,41.452M204.79,89.115C204.983,89.115 205.18,89.108 205.376,89.095C207.233,88.968 208.806,88.047 209.925,86.43C210.415,85.722 210.707,85.036 210.865,84.586C211.216,83.588 211.116,83.258 211.074,83.117C211.003,82.877 210.868,82.701 210.739,82.568C210.871,82.416 211.033,82.247 211.158,82.117C211.715,81.535 212.156,81.075 211.982,80.416C211.884,80.045 211.622,79.759 210.98,79.371C211.022,78.877 210.816,78.519 210.703,78.322C210.678,78.279 210.641,78.214 210.635,78.194L210.635,78.194C210.635,78.194 210.633,78.178 210.639,78.139C210.674,77.875 210.689,77.596 210.683,77.305C210.662,76.42 209.998,75.681 209.103,75.544L207.632,75.32C207.306,75.27 206.967,75.246 206.596,75.246C206.567,75.246 206.537,75.246 206.508,75.247C205.888,75.177 205.468,74.92 205.257,74.483L205.238,74.423L205.878,72.257C206.18,71.234 206.39,70.184 206.505,69.121L211.693,74.042C212.264,74.635 212.89,75.193 213.552,75.698L214.611,76.507C215.229,76.977 216.107,77.028 216.455,77.028C216.731,77.028 217.137,76.998 217.506,76.855L219.195,76.205C219.737,75.996 220.142,75.563 220.307,75.017C220.468,74.482 220.375,73.912 220.049,73.453L219.888,73.227C219.564,72.769 219.045,72.482 218.481,72.443C218.78,72.147 218.965,71.739 218.965,71.29C218.965,70.58 218.503,69.955 217.815,69.734L213.662,68.392C213.149,68.227 212.753,67.86 212.575,67.386L211.671,64.99L219.667,68.462C219.974,68.596 220.302,68.664 220.64,68.664C221.167,68.664 221.687,68.491 222.103,68.177L224.08,66.688C224.507,66.366 224.741,65.858 224.706,65.331C224.671,64.801 224.37,64.327 223.901,64.063L223.424,63.794C223.249,63.695 223.058,63.63 222.86,63.601C222.913,63.498 222.956,63.389 222.985,63.275C223.112,62.788 222.994,62.266 222.669,61.877L222.247,61.375C221.94,61.01 221.487,60.8 221.005,60.8C220.907,60.8 220.808,60.809 220.712,60.827L217.526,61.413C217.377,61.44 217.216,61.422 217.078,61.361L208.302,56.632C208.453,54.89 208.467,53.571 208.346,52.615C208.295,52.212 208.216,51.813 208.111,51.419L218.981,50.115C219.331,50.069 220.827,49.466 221.668,48.085C222.156,47.284 222.586,45.936 221.871,44.053L214.777,22.029L213.996,22.182L216.334,16.131C216.643,15.337 216.388,14.452 215.699,13.931L214.06,12.692C213.717,12.432 213.289,12.289 212.855,12.289C212.255,12.289 211.695,12.551 211.32,13.007L205.029,20.644L200.547,12.487L205.196,11.028C206.012,10.771 206.561,10.037 206.563,9.199L206.563,7.205C206.563,6.145 205.68,5.282 204.595,5.282L204.583,5.282L192.457,5.347C191.837,5.349 191.239,5.606 190.818,6.051C190.407,6.485 190.197,7.049 190.227,7.639L190.231,7.725L191.288,12.416L189.395,13.175L197.491,29.049L189.209,43.35C188.913,43.775 187.203,46.448 187.917,50.412L191.673,71.293C191.695,71.414 191.831,72.062 192.38,72.96C193.096,74.129 194.167,75.172 195.564,76.061L198.424,77.881L199.071,78.928C198.507,79.804 198.139,80.716 197.977,81.648C197.712,83.172 198.002,84.695 198.841,86.175L198.877,86.234C198.955,86.352 200.829,89.115 204.79,89.115ZM210.372,40.198L204.745,40.4L207.415,33.011C207.46,32.904 207.506,32.795 207.553,32.684C207.597,32.581 207.642,32.475 207.687,32.366L210.372,40.198Z" style="fill:rgb(32,94,147);fill-rule:nonzero;"/>
        </g>
    </g>
</svg>
