<?xml version="1.0" encoding="UTF-8" standalone="no"?>
<!DOCTYPE svg PUBLIC "-//W3C//DTD SVG 1.1//EN" "http://www.w3.org/Graphics/SVG/1.1/DTD/svg11.dtd">
<svg width="100%" height="100%" viewBox="0 0 234 133" version="1.1" xmlns="http://www.w3.org/2000/svg" xmlns:xlink="http://www.w3.org/1999/xlink" xml:space="preserve" style="fill-rule:evenodd;clip-rule:evenodd;">
    <g transform="matrix(4.16667,0,0,4.16667,0.333,0)">
        <clipPath id="_clip1">
            <rect x="1" y="1" width="54" height="30"/>
        </clipPath>
        <rect x="0.5" y="0.5" width="55" height="31" style="fill:rgb(255,187,35);stroke:rgb(36,36,36);stroke-width:1px;"/>
        <g clip-path="url(#_clip1)" style="fill:none;stroke:rgb(36,36,36);stroke-width:1px;stroke-linecap:round;stroke-linejoin:round;">
            <path d="M3.59,5.56 L2.22,6.54 L0.80,5.39 L0.48,3.41 L2.27,2.81 L3.47,3.58 Z"/>
            <path d="M6.92,5.47 L6.42,4.35 L7.53,2.35 L8.92,2.28 L9.78,3.90 L9.11,5.67 L8.29,6.08 Z"/>
            <path d="M13.02,5.72 L13.14,4.03 L14.32,2.73 L15.98,3.81 L15.45,5.69 L14.14,6.49 Z"/>
            <path d="M20.36,3.01 L21.66,3.34 L23.02,4.89 L22.77,6.15 L21.49,6.69 L19.22,5.86 L18.70,4.79 Z"/>
            <path d="M28.67,6.16 L27.43,6.25 L26.30,5.79 L26.39,4.11 L27.94,3.10 L29.06,3.21 L30.08,4.40 Z"/>
            <path d="M33.45,3.57 L34.57,3.11 L36.04,4.05 L36.33,4.72 L36.11,6.32 L34.72,7.43 L33.65,6.24 L33.15,5.27 Z"/>
            <path d="M43.14,3.83 L43.06,5.60 L40.95,6.57 L39.85,6.89 L38.62,4.91 L39.14,3.46 L40.53,2.12 L42.96,2.93 Z"/>
            <path d="M48.17,2.70 L49.06,3.79 L49.80,5.91 L48.71,6.97 L46.37,6.56 L45.74,4.45 L46.01,3.25 Z"/>
            <path d="M55.84,6.53 L52.41,5.30 L51.74,4.07 L52.99,2.84 L54.69,2.29 L57.24,3.51 L57.70,4.78 L57.00,6.18 Z"/>
            <path d="M8.45,12.60 L5.99,13.14 L3.57,11.59 L3.20,9.05 L4.51,8.24 L7.47,8.53 L8.80,9.88 Z"/>
            <path d="M12.51,10.92 L13.57,8.70 L14.90,8.43 L16.32,10.51 L15.89,12.67 L14.65,13.54 L13.39,13.21 Z"/>
            <path d="M23.45,9.78 L23.09,11.69 L22.24,11.92 L21.10,11.64 L20.67,10.04 L21.65,8.70 L22.60,8.25 Z"/>
            <path d="M29.16,11.74 L28.50,12.49 L26.90,12.10 L25.53,10.38 L25.70,9.29 L26.77,8.49 L29.16,10.20 Z"/>
            <path d="M31.89,11.19 L32.02,10.18 L33.61,9.28 L35.52,9.04 L36.19,9.93 L34.93,11.45 L33.24,12.20 Z"/>
            <path d="M43.49,11.55 L42.34,12.93 L40.49,11.83 L39.80,10.06 L40.69,9.01 L42.28,9.84 Z"/>
            <path d="M48.88,11.97 L47.89,11.71 L46.95,10.02 L47.01,9.28 L48.23,8.93 L49.35,9.57 L49.95,10.85 Z"/>
            <path d="M55.81,10.72 L53.72,12.55 L52.44,12.38 L50.76,10.73 L51.59,9.14 L54.02,8.47 L55.06,9.45 Z"/>
            <path d="M0.80,16.45 L1.85,15.40 L3.50,14.99 L4.84,15.81 L4.60,17.58 L3.58,18.13 L1.97,17.92 Z"/>
            <path d="M10.29,17.37 L8.73,17.97 L7.43,17.20 L7.04,15.98 L7.93,14.73 L9.11,14.48 L10.57,15.61 Z"/>
            <path d="M13.74,18.88 L12.73,17.94 L12.22,14.62 L13.28,13.60 L14.45,14.01 L16.53,15.95 L16.82,18.62 L15.80,19.66 Z"/>
            <path d="M20.66,14.43 L22.37,13.98 L23.46,14.09 L24.84,16.15 L24.44,17.38 L23.40,17.97 L21.49,17.32 L20.11,16.21 Z"/>
            <path d="M31.82,15.75 L31.39,17.49 L28.84,18.64 L27.95,17.10 L28.27,15.38 L30.94,13.87 Z"/>
            <path d="M36.91,14.88 L38.55,15.31 L39.26,16.61 L37.10,17.82 L35.28,17.84 L35.19,17.07 L35.86,15.41 Z"/>
            <path d="M41.98,14.48 L43.88,14.01 L45.05,15.00 L45.17,16.29 L44.73,17.76 L43.47,18.39 L42.00,17.09 L41.58,16.49 Z"/>
            <path d="M48.49,15.57 L50.53,15.45 L51.34,17.04 L50.81,18.16 L48.74,18.14 L47.98,17.32 Z"/>
            <path d="M56.34,14.21 L57.45,16.51 L56.88,17.91 L55.14,18.76 L53.13,16.67 L53.27,14.98 L54.72,13.73 Z"/>
            <path d="M7.22,21.57 L7.77,22.23 L7.04,23.43 L5.19,23.97 L4.32,24.08 L3.55,22.84 L4.34,21.87 L6.21,21.12 Z"/>
            <path d="M10.34,22.75 L9.99,21.30 L12.43,20.50 L13.98,20.69 L15.29,22.78 L13.98,23.67 L11.50,24.09 Z"/>
            <path d="M17.29,23.11 L17.87,21.46 L19.71,21.06 L21.45,21.97 L21.05,23.66 L19.50,23.94 Z"/>
            <path d="M24.57,20.98 L25.19,19.53 L26.54,19.71 L27.84,21.15 L27.92,22.50 L27.23,23.46 L25.31,23.66 L24.22,23.31 Z"/>
            <path d="M32.18,20.72 L33.37,20.27 L33.96,21.15 L33.95,22.63 L32.87,23.65 L31.49,24.00 L30.82,23.10 L31.06,21.22 Z"/>
            <path d="M35.39,22.81 L34.95,21.38 L37.14,20.65 L39.38,20.78 L41.51,22.08 L40.25,23.84 L37.85,24.29 Z"/>
            <path d="M48.05,19.44 L49.49,21.33 L49.02,23.56 L47.40,24.07 L45.91,22.58 L45.80,20.19 Z"/>
            <path d="M52.80,22.09 L53.74,20.43 L56.05,20.36 L56.83,21.90 L56.06,24.20 L54.55,24.95 Z"/>
            <path d="M2.06,29.34 L1.33,28.82 L0.28,27.68 L1.24,25.91 L2.87,25.54 L5.06,26.37 L5.30,27.76 L4.33,28.76 Z"/>
            <path d="M10.00,29.74 L8.58,29.70 L7.69,26.89 L8.43,25.64 L10.35,26.21 L11.00,28.82 Z"/>
            <path d="M17.15,25.91 L18.44,26.48 L17.81,28.01 L16.59,29.17 L14.98,29.09 L14.79,28.00 L15.69,26.66 Z"/>
            <path d="M25.20,27.26 L24.71,28.57 L22.73,29.34 L21.44,28.82 L20.63,27.23 L21.52,26.46 L23.20,26.34 Z"/>
            <path d="M31.32,29.07 L28.90,29.21 L27.17,27.39 L27.36,26.17 L29.46,25.19 L31.21,25.62 L31.87,28.04 Z"/>
            <path d="M37.59,25.25 L38.86,26.79 L38.89,28.23 L37.22,29.84 L35.38,29.09 L34.93,28.15 L36.00,25.82 Z"/>
            <path d="M45.05,29.84 L42.01,28.40 L40.82,27.09 L43.07,25.26 L44.67,25.48 L46.61,28.16 Z"/>
            <path d="M49.08,27.22 L51.01,26.03 L52.29,26.21 L53.79,27.82 L53.23,28.81 L50.83,29.97 L49.28,29.53 L48.54,28.46 Z"/>
        </g>
    </g>
</svg>
